# xmcd CD database file
#
# Track frame offsets:
#	150
#	22488
#	42842
#	65154
#	84416
#	116900
#	130062
#	161659
#	182885
#	208281
#
# Disc length: 3054 seconds
#
# Revision: 0
# Processed by: cddbd v1.5.2PL0 Copyright (c) Steve Scherf et al.
# Submitted via: CDex 1.79
#
DISCID=990bec0a
DTITLE=Calle Reina - Un Consejo Sano
DYEAR=2008
DGENRE=Salsa
TTITLE0=Un consejo sano
TTITLE1=Soka
TTITLE2=Despedida
TTITLE3=Lo que llevo dentro
TTITLE4=Llegar a ti
TTITLE5=Un millon de amigos
TTITLE6=Mix cumbias
TTITLE7=Me levanto solito
TTITLE8=Guantanamera
TTITLE9=Pensando en ti
EXTD=YEAR: 2008
EXTT0=
EXTT1=
EXTT2=
EXTT3=
EXTT4=
EXTT5=
EXTT6=
EXTT7=
EXTT8=
EXTT9=
PLAYORDER=
